<svg class="Ellipce" width="7" height="9" viewBox="0 0 7 9" fill="none" xmlns="http://www.w3.org/2000/svg">
          <path fill-rule="evenodd" clip-rule="evenodd" d="M3.49487 7.8076C4.87166 7.8076 5.98778 6.50694 5.98778 4.90249C5.98778 3.29804 4.87166 1.99738 3.49487 1.99738C2.11807 1.99738 1.00195 3.29804 1.00195 4.90249C1.00195 6.50694 2.11807 7.8076 3.49487 7.8076ZM3.49487 8.97295C5.42395 8.97295 6.98778 7.15054 6.98778 4.90249C6.98778 2.65444 5.42395 0.832031 3.49487 0.832031C1.56578 0.832031 0.00195312 2.65444 0.00195312 4.90249C0.00195312 7.15054 1.56578 8.97295 3.49487 8.97295Z" fill="white"/>
        </svg>
        <svg class="Ellipce" width="8" height="9" viewBox="0 0 8 9" fill="none" xmlns="http://www.w3.org/2000/svg">
          <path fill-rule="evenodd" clip-rule="evenodd" d="M4.45678 7.6848C5.83358 7.6848 6.94969 6.38414 6.94969 4.77969C6.94969 3.17524 5.83358 1.87458 4.45678 1.87458C3.07998 1.87458 1.96387 3.17524 1.96387 4.77969C1.96387 6.38414 3.07998 7.6848 4.45678 7.6848ZM4.45678 8.85015C6.38586 8.85015 7.94969 7.02774 7.94969 4.77969C7.94969 2.53164 6.38586 0.709229 4.45678 0.709229C2.5277 0.709229 0.963867 2.53164 0.963867 4.77969C0.963867 7.02774 2.5277 8.85015 4.45678 8.85015Z" fill="white"/>
        </svg>
        <svg class="Ellipce" width="8" height="9" viewBox="0 0 8 9" fill="none" xmlns="http://www.w3.org/2000/svg">
          <path fill-rule="evenodd" clip-rule="evenodd" d="M3.5266 7.63573C4.9034 7.63573 6.01952 6.33506 6.01952 4.73062C6.01952 3.12617 4.9034 1.8255 3.5266 1.8255C2.14981 1.8255 1.03369 3.12617 1.03369 4.73062C1.03369 6.33506 2.14981 7.63573 3.5266 7.63573ZM3.5266 8.80107C5.45569 8.80107 7.01952 6.97867 7.01952 4.73062C7.01952 2.48256 5.45569 0.660156 3.5266 0.660156C1.59752 0.660156 0.0336914 2.48256 0.0336914 4.73062C0.0336914 6.97867 1.59752 8.80107 3.5266 8.80107Z" fill="white"/>
        </svg>
        <svg class="Ellipce" width="8" height="10" viewBox="0 0 8 10" fill="none" xmlns="http://www.w3.org/2000/svg">
          <path fill-rule="evenodd" clip-rule="evenodd" d="M3.86205 7.90282C5.23885 7.90282 6.35497 6.60215 6.35497 4.99771C6.35497 3.39326 5.23885 2.09259 3.86205 2.09259C2.48526 2.09259 1.36914 3.39326 1.36914 4.99771C1.36914 6.60215 2.48526 7.90282 3.86205 7.90282ZM3.86205 9.06816C5.79114 9.06816 7.35497 7.24576 7.35497 4.99771C7.35497 2.74965 5.79114 0.927246 3.86205 0.927246C1.93297 0.927246 0.369141 2.74965 0.369141 4.99771C0.369141 7.24576 1.93297 9.06816 3.86205 9.06816Z" fill="white"/>
        </svg>
        <svg class="Ellipce" width="8" height="9" viewBox="0 0 8 9" fill="none" xmlns="http://www.w3.org/2000/svg">
          <path fill-rule="evenodd" clip-rule="evenodd" d="M4.10375 7.11082C5.48055 7.11082 6.59666 5.81016 6.59666 4.20571C6.59666 2.60126 5.48055 1.3006 4.10375 1.3006C2.72695 1.3006 1.61084 2.60126 1.61084 4.20571C1.61084 5.81016 2.72695 7.11082 4.10375 7.11082ZM4.10375 8.27617C6.03283 8.27617 7.59666 6.45377 7.59666 4.20571C7.59666 1.95766 6.03283 0.135254 4.10375 0.135254C2.17467 0.135254 0.61084 1.95766 0.61084 4.20571C0.61084 6.45377 2.17467 8.27617 4.10375 8.27617Z" fill="white"/>
        </svg>
        <svg class="Ellipce" width="8" height="9" viewBox="0 0 8 9" fill="none" xmlns="http://www.w3.org/2000/svg">
          <path fill-rule="evenodd" clip-rule="evenodd" d="M3.92162 7.14867C5.29842 7.14867 6.41454 5.848 6.41454 4.24355C6.41454 2.63911 5.29842 1.33844 3.92162 1.33844C2.54483 1.33844 1.42871 2.63911 1.42871 4.24355C1.42871 5.848 2.54483 7.14867 3.92162 7.14867ZM3.92162 8.31401C5.85071 8.31401 7.41454 6.49161 7.41454 4.24355C7.41454 1.9955 5.85071 0.173096 3.92162 0.173096C1.99254 0.173096 0.428711 1.9955 0.428711 4.24355C0.428711 6.49161 1.99254 8.31401 3.92162 8.31401Z" fill="white"/>
        </svg>
        <svg class="Ellipce" width="8" height="9" viewBox="0 0 8 9" fill="none" xmlns="http://www.w3.org/2000/svg">
          <path fill-rule="evenodd" clip-rule="evenodd" d="M3.7561 7.67186C5.13289 7.67186 6.24901 6.3712 6.24901 4.76675C6.24901 3.1623 5.13289 1.86164 3.7561 1.86164C2.3793 1.86164 1.26318 3.1623 1.26318 4.76675C1.26318 6.3712 2.3793 7.67186 3.7561 7.67186ZM3.7561 8.83721C5.68518 8.83721 7.24901 7.0148 7.24901 4.76675C7.24901 2.5187 5.68518 0.696289 3.7561 0.696289C1.82701 0.696289 0.263184 2.5187 0.263184 4.76675C0.263184 7.0148 1.82701 8.83721 3.7561 8.83721Z" fill="white"/>
        </svg>
        <svg class="Ellipce" width="8" height="9" viewBox="0 0 8 9" fill="none" xmlns="http://www.w3.org/2000/svg">
          <path fill-rule="evenodd" clip-rule="evenodd" d="M4.03735 6.9846C5.41414 6.9846 6.53026 5.68394 6.53026 4.07949C6.53026 2.47504 5.41414 1.17438 4.03735 1.17438C2.66055 1.17438 1.54443 2.47504 1.54443 4.07949C1.54443 5.68394 2.66055 6.9846 4.03735 6.9846ZM4.03735 8.14995C5.96643 8.14995 7.53026 6.32754 7.53026 4.07949C7.53026 1.83144 5.96643 0.0090332 4.03735 0.0090332C2.10826 0.0090332 0.544434 1.83144 0.544434 4.07949C0.544434 6.32754 2.10826 8.14995 4.03735 8.14995Z" fill="white"/>
        </svg>
        <svg class="Ellipce" width="8" height="9" viewBox="0 0 8 9" fill="none" xmlns="http://www.w3.org/2000/svg">
          <path fill-rule="evenodd" clip-rule="evenodd" d="M3.84155 7.00706C5.21834 7.00706 6.33446 5.7064 6.33446 4.10195C6.33446 2.4975 5.21834 1.19684 3.84155 1.19684C2.46475 1.19684 1.34863 2.4975 1.34863 4.10195C1.34863 5.7064 2.46475 7.00706 3.84155 7.00706ZM3.84155 8.17241C5.77063 8.17241 7.33446 6.35001 7.33446 4.10195C7.33446 1.8539 5.77063 0.0314941 3.84155 0.0314941C1.91246 0.0314941 0.348633 1.8539 0.348633 4.10195C0.348633 6.35001 1.91246 8.17241 3.84155 8.17241Z" fill="white"/>
        </svg>
        <svg class="Ellipce" width="8" height="9" viewBox="0 0 8 9" fill="none" xmlns="http://www.w3.org/2000/svg">
          <path fill-rule="evenodd" clip-rule="evenodd" d="M3.53002 7.56395C4.90682 7.56395 6.02293 6.26329 6.02293 4.65884C6.02293 3.05439 4.90682 1.75373 3.53002 1.75373C2.15322 1.75373 1.03711 3.05439 1.03711 4.65884C1.03711 6.26329 2.15322 7.56395 3.53002 7.56395ZM3.53002 8.7293C5.4591 8.7293 7.02293 6.90689 7.02293 4.65884C7.02293 2.41079 5.4591 0.588379 3.53002 0.588379C1.60094 0.588379 0.0371094 2.41079 0.0371094 4.65884C0.0371094 6.90689 1.60094 8.7293 3.53002 8.7293Z" fill="white"/>
        </svg>
        <svg class="Ellipce" width="7" height="9" viewBox="0 0 7 9" fill="none" xmlns="http://www.w3.org/2000/svg">
          <path fill-rule="evenodd" clip-rule="evenodd" d="M3.49194 7.67552C4.86873 7.67552 5.98485 6.37486 5.98485 4.77041C5.98485 3.16596 4.86873 1.8653 3.49194 1.8653C2.11514 1.8653 0.999023 3.16596 0.999023 4.77041C0.999023 6.37486 2.11514 7.67552 3.49194 7.67552ZM3.49194 8.84087C5.42102 8.84087 6.98485 7.01846 6.98485 4.77041C6.98485 2.52236 5.42102 0.699951 3.49194 0.699951C1.56285 0.699951 -0.000976562 2.52236 -0.000976562 4.77041C-0.000976562 7.01846 1.56285 8.84087 3.49194 8.84087Z" fill="white"/>
        </svg>
        <svg class="Ellipce" width="8" height="9" viewBox="0 0 8 9" fill="none" xmlns="http://www.w3.org/2000/svg">
          <path fill-rule="evenodd" clip-rule="evenodd" d="M4.25268 7.09837C5.62948 7.09837 6.74559 5.79771 6.74559 4.19326C6.74559 2.58881 5.62948 1.28815 4.25268 1.28815C2.87588 1.28815 1.75977 2.58881 1.75977 4.19326C1.75977 5.79771 2.87588 7.09837 4.25268 7.09837ZM4.25268 8.26372C6.18176 8.26372 7.74559 6.44131 7.74559 4.19326C7.74559 1.94521 6.18176 0.122803 4.25268 0.122803C2.3236 0.122803 0.759766 1.94521 0.759766 4.19326C0.759766 6.44131 2.3236 8.26372 4.25268 8.26372Z" fill="white"/>
        </svg>
